<?xml version="1.0" encoding="UTF-8" standalone="no"?><svg xmlns="http://www.w3.org/2000/svg" xmlns:xlink="http://www.w3.org/1999/xlink" contentScriptType="application/ecmascript" contentStyleType="text/css" height="308px" preserveAspectRatio="none" style="width:902px;height:308px;" version="1.1" viewBox="0 0 902 308" width="902px" zoomAndPan="magnify"><defs><filter height="300%" id="f1xtvzoiresytj" width="300%" x="-1" y="-1"><feGaussianBlur result="blurOut" stdDeviation="2.0"/><feColorMatrix in="blurOut" result="blurOut2" type="matrix" values="0 0 0 0 0 0 0 0 0 0 0 0 0 0 0 0 0 0 .4 0"/><feOffset dx="4.0" dy="4.0" in="blurOut2" result="blurOut3"/><feBlend in="SourceGraphic" in2="blurOut3" mode="normal"/></filter></defs><g><!--class Kunde--><rect fill="#FEFECE" filter="url(#f1xtvzoiresytj)" height="240.0703" id="Kunde" style="stroke: #A80036; stroke-width: 1.5;" width="270" x="621.5" y="57"/><ellipse cx="732.75" cy="73" fill="#ADD1B2" rx="11" ry="11" style="stroke: #A80036; stroke-width: 1.0;"/><path d="M735.75,78 Q735.1406,78.5 734.4844,78.75 Q733.8281,79 733.0938,79 Q730.4844,79 729.1172,77.4609 Q727.75,75.9219 727.75,73 Q727.75,70.0781 729.1172,68.5391 Q730.4844,67 733.0938,67 Q733.8281,67 734.5,67.25 Q735.1719,67.5 735.75,68 L735.75,71 Q735.1406,69.9688 734.5625,69.4844 Q733.9844,69 733.375,69 Q732.0781,69 731.4141,70.0078 Q730.75,71.0156 730.75,73 Q730.75,74.9844 731.4141,75.9922 Q732.0781,77 733.375,77 Q733.9844,77 734.5625,76.5156 Q735.1406,76.0313 735.75,75 L735.75,78 Z "/><text fill="#000000" font-family="sans-serif" font-size="12" lengthAdjust="spacingAndGlyphs" textLength="39" x="753.25" y="77.1543">Kunde</text><line style="stroke: #A80036; stroke-width: 1.5;" x1="622.5" x2="890.5" y1="89" y2="89"/><rect fill="none" height="6" style="stroke: #C82930; stroke-width: 1.0;" width="6" x="629.5" y="97.9023"/><text fill="#000000" font-family="sans-serif" font-size="11" lengthAdjust="spacingAndGlyphs" textLength="136" x="641.5" y="103.2104">contract:List&lt;Contract&gt;</text><rect fill="none" height="6" style="stroke: #C82930; stroke-width: 1.0;" width="6" x="629.5" y="110.707"/><text fill="#000000" font-family="sans-serif" font-size="11" lengthAdjust="spacingAndGlyphs" textLength="117" x="641.5" y="116.0151">customerNumber:int</text><rect fill="none" height="6" style="stroke: #C82930; stroke-width: 1.0;" width="6" x="629.5" y="123.5117"/><text fill="#000000" font-family="sans-serif" font-size="11" lengthAdjust="spacingAndGlyphs" textLength="94" x="641.5" y="128.8198">firstName:String</text><rect fill="none" height="6" style="stroke: #C82930; stroke-width: 1.0;" width="6" x="629.5" y="136.3164"/><text fill="#000000" font-family="sans-serif" font-size="11" lengthAdjust="spacingAndGlyphs" textLength="112" x="641.5" y="141.6245">secondName:String</text><rect fill="none" height="6" style="stroke: #C82930; stroke-width: 1.0;" width="6" x="629.5" y="149.1211"/><text fill="#000000" font-family="sans-serif" font-size="11" lengthAdjust="spacingAndGlyphs" textLength="76" x="641.5" y="154.4292">birthday:Date</text><line style="stroke: #A80036; stroke-width: 1.5;" x1="622.5" x2="890.5" y1="161.0234" y2="161.0234"/><ellipse cx="632.5" cy="172.9258" fill="#84BE84" rx="3" ry="3" style="stroke: #038048; stroke-width: 1.0;"/><text fill="#000000" font-family="sans-serif" font-size="11" lengthAdjust="spacingAndGlyphs" textLength="244" x="641.5" y="175.2339">setContract(contracts:List&lt;Contract&gt;):void</text><ellipse cx="632.5" cy="185.7305" fill="#84BE84" rx="3" ry="3" style="stroke: #038048; stroke-width: 1.0;"/><text fill="#000000" font-family="sans-serif" font-size="11" lengthAdjust="spacingAndGlyphs" textLength="216" x="641.5" y="188.0386">setCustomerNumber(number:int):void</text><ellipse cx="632.5" cy="198.5352" fill="#84BE84" rx="3" ry="3" style="stroke: #038048; stroke-width: 1.0;"/><text fill="#000000" font-family="sans-serif" font-size="11" lengthAdjust="spacingAndGlyphs" textLength="204" x="641.5" y="200.8433">setFirstName(firstname:String):void</text><ellipse cx="632.5" cy="211.3398" fill="#84BE84" rx="3" ry="3" style="stroke: #038048; stroke-width: 1.0;"/><text fill="#000000" font-family="sans-serif" font-size="11" lengthAdjust="spacingAndGlyphs" textLength="239" x="641.5" y="213.6479">setSecondName(secondname:String):void</text><ellipse cx="632.5" cy="224.1445" fill="#84BE84" rx="3" ry="3" style="stroke: #038048; stroke-width: 1.0;"/><text fill="#000000" font-family="sans-serif" font-size="11" lengthAdjust="spacingAndGlyphs" textLength="176" x="641.5" y="226.4526">setBirthday(birthday:Date):void</text><ellipse cx="632.5" cy="236.9492" fill="#84BE84" rx="3" ry="3" style="stroke: #038048; stroke-width: 1.0;"/><text fill="#000000" font-family="sans-serif" font-size="11" lengthAdjust="spacingAndGlyphs" textLength="159" x="641.5" y="239.2573">getContract():List&lt;Contract)</text><ellipse cx="632.5" cy="249.7539" fill="#84BE84" rx="3" ry="3" style="stroke: #038048; stroke-width: 1.0;"/><text fill="#000000" font-family="sans-serif" font-size="11" lengthAdjust="spacingAndGlyphs" textLength="145" x="641.5" y="252.062">getCostomerNumber():int</text><ellipse cx="632.5" cy="262.5586" fill="#84BE84" rx="3" ry="3" style="stroke: #038048; stroke-width: 1.0;"/><text fill="#000000" font-family="sans-serif" font-size="11" lengthAdjust="spacingAndGlyphs" textLength="122" x="641.5" y="264.8667">getFirstName():String</text><ellipse cx="632.5" cy="275.3633" fill="#84BE84" rx="3" ry="3" style="stroke: #038048; stroke-width: 1.0;"/><text fill="#000000" font-family="sans-serif" font-size="11" lengthAdjust="spacingAndGlyphs" textLength="139" x="641.5" y="277.6714">getSecondName():String</text><ellipse cx="632.5" cy="288.168" fill="#84BE84" rx="3" ry="3" style="stroke: #038048; stroke-width: 1.0;"/><text fill="#000000" font-family="sans-serif" font-size="11" lengthAdjust="spacingAndGlyphs" textLength="103" x="641.5" y="290.4761">getBirthday():Date</text><!--class Contract--><rect fill="#FEFECE" filter="url(#f1xtvzoiresytj)" height="176.0469" id="Contract" style="stroke: #A80036; stroke-width: 1.5;" width="308" x="278.5" y="89"/><ellipse cx="401.25" cy="105" fill="#ADD1B2" rx="11" ry="11" style="stroke: #A80036; stroke-width: 1.0;"/><path d="M404.25,110 Q403.6406,110.5 402.9844,110.75 Q402.3281,111 401.5938,111 Q398.9844,111 397.6172,109.4609 Q396.25,107.9219 396.25,105 Q396.25,102.0781 397.6172,100.5391 Q398.9844,99 401.5938,99 Q402.3281,99 403,99.25 Q403.6719,99.5 404.25,100 L404.25,103 Q403.6406,101.9688 403.0625,101.4844 Q402.4844,101 401.875,101 Q400.5781,101 399.9141,102.0078 Q399.25,103.0156 399.25,105 Q399.25,106.9844 399.9141,107.9922 Q400.5781,109 401.875,109 Q402.4844,109 403.0625,108.5156 Q403.6406,108.0313 404.25,107 L404.25,110 Z "/><text fill="#000000" font-family="sans-serif" font-size="12" lengthAdjust="spacingAndGlyphs" textLength="54" x="421.75" y="109.1543">Contract</text><line style="stroke: #A80036; stroke-width: 1.5;" x1="279.5" x2="585.5" y1="121" y2="121"/><rect fill="none" height="6" style="stroke: #C82930; stroke-width: 1.0;" width="6" x="286.5" y="129.9023"/><text fill="#000000" font-family="sans-serif" font-size="11" lengthAdjust="spacingAndGlyphs" textLength="113" x="298.5" y="135.2104">contractNumber: int</text><rect fill="none" height="6" style="stroke: #C82930; stroke-width: 1.0;" width="6" x="286.5" y="142.707"/><text fill="#000000" font-family="sans-serif" font-size="11" lengthAdjust="spacingAndGlyphs" textLength="128" x="298.5" y="148.0151">contractualOffer:Enum</text><rect fill="none" height="6" style="stroke: #C82930; stroke-width: 1.0;" width="6" x="286.5" y="155.5117"/><text fill="#000000" font-family="sans-serif" font-size="11" lengthAdjust="spacingAndGlyphs" textLength="127" x="298.5" y="160.8198">int annualSubscription</text><line style="stroke: #A80036; stroke-width: 1.5;" x1="279.5" x2="585.5" y1="167.4141" y2="167.4141"/><ellipse cx="289.5" cy="179.3164" fill="#84BE84" rx="3" ry="3" style="stroke: #038048; stroke-width: 1.0;"/><text fill="#000000" font-family="sans-serif" font-size="11" lengthAdjust="spacingAndGlyphs" textLength="255" x="298.5" y="181.6245">setContractNumber(contractNumber:int):void</text><ellipse cx="289.5" cy="192.1211" fill="#84BE84" rx="3" ry="3" style="stroke: #038048; stroke-width: 1.0;"/><text fill="#000000" font-family="sans-serif" font-size="11" lengthAdjust="spacingAndGlyphs" textLength="275" x="298.5" y="194.4292">setContractualOffer(contractualOffer:Enum):void</text><ellipse cx="289.5" cy="204.9258" fill="#84BE84" rx="3" ry="3" style="stroke: #038048; stroke-width: 1.0;"/><text fill="#000000" font-family="sans-serif" font-size="11" lengthAdjust="spacingAndGlyphs" textLength="282" x="298.5" y="207.2339">setAnnualSubscription(annualSubsriction:int):void</text><text fill="#000000" font-family="sans-serif" font-size="11" lengthAdjust="spacingAndGlyphs" textLength="0" x="302.5" y="220.0386"/><ellipse cx="289.5" cy="230.5352" fill="#84BE84" rx="3" ry="3" style="stroke: #038048; stroke-width: 1.0;"/><text fill="#000000" font-family="sans-serif" font-size="11" lengthAdjust="spacingAndGlyphs" textLength="137" x="298.5" y="232.8433">getContractNumber():int</text><ellipse cx="289.5" cy="243.3398" fill="#84BE84" rx="3" ry="3" style="stroke: #038048; stroke-width: 1.0;"/><text fill="#000000" font-family="sans-serif" font-size="11" lengthAdjust="spacingAndGlyphs" textLength="156" x="298.5" y="245.6479">getContractualOffer():Enum</text><ellipse cx="289.5" cy="256.1445" fill="#84BE84" rx="3" ry="3" style="stroke: #038048; stroke-width: 1.0;"/><text fill="#000000" font-family="sans-serif" font-size="11" lengthAdjust="spacingAndGlyphs" textLength="153" x="298.5" y="258.4526">getAnnualSubscription():int</text><!--class Address--><rect fill="#FEFECE" filter="url(#f1xtvzoiresytj)" height="176.0469" id="Address" style="stroke: #A80036; stroke-width: 1.5;" width="237" x="6" y="89"/><ellipse cx="94.75" cy="105" fill="#ADD1B2" rx="11" ry="11" style="stroke: #A80036; stroke-width: 1.0;"/><path d="M97.75,110 Q97.1406,110.5 96.4844,110.75 Q95.8281,111 95.0938,111 Q92.4844,111 91.1172,109.4609 Q89.75,107.9219 89.75,105 Q89.75,102.0781 91.1172,100.5391 Q92.4844,99 95.0938,99 Q95.8281,99 96.5,99.25 Q97.1719,99.5 97.75,100 L97.75,103 Q97.1406,101.9688 96.5625,101.4844 Q95.9844,101 95.375,101 Q94.0781,101 93.4141,102.0078 Q92.75,103.0156 92.75,105 Q92.75,106.9844 93.4141,107.9922 Q94.0781,109 95.375,109 Q95.9844,109 96.5625,108.5156 Q97.1406,108.0313 97.75,107 L97.75,110 Z "/><text fill="#000000" font-family="sans-serif" font-size="12" lengthAdjust="spacingAndGlyphs" textLength="51" x="115.25" y="109.1543">Address</text><line style="stroke: #A80036; stroke-width: 1.5;" x1="7" x2="242" y1="121" y2="121"/><rect fill="none" height="6" style="stroke: #C82930; stroke-width: 1.0;" width="6" x="14" y="129.9023"/><text fill="#000000" font-family="sans-serif" font-size="11" lengthAdjust="spacingAndGlyphs" textLength="72" x="26" y="135.2104">street:String</text><rect fill="none" height="6" style="stroke: #C82930; stroke-width: 1.0;" width="6" x="14" y="142.707"/><text fill="#000000" font-family="sans-serif" font-size="11" lengthAdjust="spacingAndGlyphs" textLength="72" x="26" y="148.0151">postCode:int</text><rect fill="none" height="6" style="stroke: #C82930; stroke-width: 1.0;" width="6" x="14" y="155.5117"/><text fill="#000000" font-family="sans-serif" font-size="11" lengthAdjust="spacingAndGlyphs" textLength="139" x="26" y="160.8198">placeOfResidence:String</text><line style="stroke: #A80036; stroke-width: 1.5;" x1="7" x2="242" y1="167.4141" y2="167.4141"/><ellipse cx="17" cy="179.3164" fill="#84BE84" rx="3" ry="3" style="stroke: #038048; stroke-width: 1.0;"/><text fill="#000000" font-family="sans-serif" font-size="11" lengthAdjust="spacingAndGlyphs" textLength="160" x="26" y="181.6245">setStreet(street:String):void</text><ellipse cx="17" cy="192.1211" fill="#84BE84" rx="3" ry="3" style="stroke: #038048; stroke-width: 1.0;"/><text fill="#000000" font-family="sans-serif" font-size="11" lengthAdjust="spacingAndGlyphs" textLength="179" x="26" y="194.4292">setPostCode(PostCode:int):void</text><ellipse cx="17" cy="204.9258" fill="#84BE84" rx="3" ry="3" style="stroke: #038048; stroke-width: 1.0;"/><text fill="#000000" font-family="sans-serif" font-size="11" lengthAdjust="spacingAndGlyphs" textLength="211" x="26" y="207.2339">setPlaceOfResidence(por:String):void</text><text fill="#000000" font-family="sans-serif" font-size="11" lengthAdjust="spacingAndGlyphs" textLength="0" x="30" y="220.0386"/><ellipse cx="17" cy="230.5352" fill="#84BE84" rx="3" ry="3" style="stroke: #038048; stroke-width: 1.0;"/><text fill="#000000" font-family="sans-serif" font-size="11" lengthAdjust="spacingAndGlyphs" textLength="99" x="26" y="232.8433">getStreet():String</text><ellipse cx="17" cy="243.3398" fill="#84BE84" rx="3" ry="3" style="stroke: #038048; stroke-width: 1.0;"/><text fill="#000000" font-family="sans-serif" font-size="11" lengthAdjust="spacingAndGlyphs" textLength="98" x="26" y="245.6479">getPostCode():int</text><ellipse cx="17" cy="256.1445" fill="#84BE84" rx="3" ry="3" style="stroke: #038048; stroke-width: 1.0;"/><text fill="#000000" font-family="sans-serif" font-size="11" lengthAdjust="spacingAndGlyphs" textLength="165" x="26" y="258.4526">getPlaceOfResidence():String</text><!--link Address to Kunde--><path d="M202.0245,79.4734 C224.3722,58.1717 250.5053,38.557 279,27 C342.4262,1.2754 522.9968,2.7466 587,27 C606.1077,34.2407 624.4464,44.7288 641.5402,56.8463 " fill="none" id="Address-Kunde" style="stroke: #A80036; stroke-width: 1.0;"/><polygon fill="#A80036" points="192.6829,88.6875,199.7635,87.3219,201.2263,80.2608,194.1457,81.6263,192.6829,88.6875" style="stroke: #A80036; stroke-width: 1.0;"/><text fill="#000000" font-family="sans-serif" font-size="13" lengthAdjust="spacingAndGlyphs" textLength="23" x="610.4389" y="45.7374">1..*</text><!--link Contract to Kunde--><path d="M599.6567,177 C606.916,177 614.1754,177 621.4347,177 " fill="none" id="Contract-Kunde" style="stroke: #A80036; stroke-width: 1.0;"/><polygon fill="#FFFFFF" points="586.5898,177,592.5898,181,598.5898,177,592.5898,173,586.5898,177" style="stroke: #A80036; stroke-width: 1.0;"/><text fill="#000000" font-family="sans-serif" font-size="13" lengthAdjust="spacingAndGlyphs" textLength="7" x="606.4239" y="173.6351">*</text><!--
@startuml

class Kunde {
 - contract:List<Contract>
 - customerNumber:int
 - firstName:String
 - secondName:String
 - birthday:Date
 + setContract(contracts:List<Contract>):void
 + setCustomerNumber(number:int):void
 + setFirstName(firstname:String):void
 + setSecondName(secondname:String):void
 + setBirthday(birthday:Date):void
 + getContract():List<Contract)
 + getCostomerNumber():int
 + getFirstName():String
 + getSecondName():String
 + getBirthday():Date
}

class Contract{
- contractNumber: int
- contractualOffer:Enum
- int annualSubscription

+ setContractNumber(contractNumber:int):void
+ setContractualOffer(contractualOffer:Enum):void
+ setAnnualSubscription(annualSubsriction:int):void

+ getContractNumber():int
+ getContractualOffer():Enum
+ getAnnualSubscription():int
}

class Address{
- street:String
- postCode:int
- placeOfResidence:String

+ setStreet(street:String):void
+ setPostCode(PostCode:int):void
+ setPlaceOfResidence(por:String):void

+ getStreet():String
+ getPostCode():int
+ getPlaceOfResidence():String
}

Address *-"1..*" Kunde
Contract o-"*" Kunde


@enduml

PlantUML version 1.2018.11(Sat Sep 22 18:43:53 CEST 2018)
(GPL source distribution)
Java Runtime: OpenJDK Runtime Environment
JVM: OpenJDK 64-Bit Server VM
Java Version: 1.8.0_152-release-1343-b26
Operating System: Linux
OS Version: 4.15.0-43-generic
Default Encoding: UTF-8
Language: en
Country: US
--></g></svg>